<svg width="33" height="33" viewBox="0 0 33 33" fill="none" xmlns="http://www.w3.org/2000/svg">
<path id="Vector" d="M2.75 19.25H15.125V33H2.75V19.25ZM17.875 33H30.25V19.25H17.875V33ZM33 13.75V16.5H17.875V12.3104C17.4268 12.3503 16.9702 12.375 16.5 12.375C16.0298 12.375 15.5732 12.3503 15.125 12.3104V16.5H0V13.75C0 12.656 0.434597 11.6068 1.20818 10.8332C1.98177 10.0596 3.03098 9.625 4.125 9.625H8.43425C7.48124 8.75611 6.72605 7.69259 6.21981 6.50645C5.71357 5.32032 5.46809 4.03926 5.5 2.75H8.25C8.25 6.71138 10.9601 8.67212 13.959 9.35C13.0585 7.74372 12.5181 5.96089 12.375 4.125C12.375 3.03098 12.8096 1.98177 13.5832 1.20818C14.3568 0.434597 15.406 0 16.5 0C17.594 0 18.6432 0.434597 19.4168 1.20818C20.1904 1.98177 20.625 3.03098 20.625 4.125C20.4819 5.96089 19.9415 7.74372 19.041 9.35C22.0399 8.67212 24.75 6.71138 24.75 2.75H27.5C27.5319 4.03926 27.2864 5.32032 26.7802 6.50645C26.2739 7.69259 25.5188 8.75611 24.5657 9.625H28.875C29.969 9.625 31.0182 10.0596 31.7918 10.8332C32.5654 11.6068 33 12.656 33 13.75ZM15.125 4.125C15.291 5.58639 15.7592 6.99725 16.5 8.26787C17.2408 6.99725 17.709 5.58639 17.875 4.125C17.875 3.76033 17.7301 3.41059 17.4723 3.15273C17.2144 2.89487 16.8647 2.75 16.5 2.75C16.1353 2.75 15.7856 2.89487 15.5277 3.15273C15.2699 3.41059 15.125 3.76033 15.125 4.125Z" fill="white"/>
</svg>
