<svg width="33" height="33" viewBox="0 0 33 33" fill="none" xmlns="http://www.w3.org/2000/svg">
<g id="target 1" clip-path="url(#clip0_265_383)">
<path id="Vector" d="M16.5 0C13.2366 0 10.0465 0.967708 7.3331 2.78075C4.61969 4.59379 2.50484 7.17074 1.256 10.1857C0.00714922 13.2007 -0.319606 16.5183 0.31705 19.719C0.953706 22.9197 2.52518 25.8597 4.83275 28.1673C7.14031 30.4748 10.0803 32.0463 13.281 32.683C16.4817 33.3196 19.7993 32.9929 22.8143 31.744C25.8293 30.4952 28.4062 28.3803 30.2193 25.6669C32.0323 22.9535 33 19.7634 33 16.5C32.9953 12.1254 31.2554 7.93129 28.162 4.83796C25.0687 1.74464 20.8746 0.00473149 16.5 0ZM17.875 30.1799V27.5C17.875 27.1353 17.7301 26.7856 17.4723 26.5277C17.2144 26.2699 16.8647 26.125 16.5 26.125C16.1353 26.125 15.7856 26.2699 15.5277 26.5277C15.2699 26.7856 15.125 27.1353 15.125 27.5V30.1799C11.971 29.8587 9.02438 28.4591 6.78262 26.2174C4.54086 23.9756 3.14128 21.029 2.82013 17.875H5.50001C5.86468 17.875 6.21442 17.7301 6.47228 17.4723C6.73014 17.2144 6.87501 16.8647 6.87501 16.5C6.87501 16.1353 6.73014 15.7856 6.47228 15.5277C6.21442 15.2699 5.86468 15.125 5.50001 15.125H2.82013C3.14128 11.971 4.54086 9.02437 6.78262 6.78262C9.02438 4.54086 11.971 3.14127 15.125 2.82013V5.5C15.125 5.86467 15.2699 6.21441 15.5277 6.47227C15.7856 6.73013 16.1353 6.875 16.5 6.875C16.8647 6.875 17.2144 6.73013 17.4723 6.47227C17.7301 6.21441 17.875 5.86467 17.875 5.5V2.82013C21.029 3.14127 23.9756 4.54086 26.2174 6.78262C28.4592 9.02437 29.8587 11.971 30.1799 15.125H27.5C27.1353 15.125 26.7856 15.2699 26.5277 15.5277C26.2699 15.7856 26.125 16.1353 26.125 16.5C26.125 16.8647 26.2699 17.2144 26.5277 17.4723C26.7856 17.7301 27.1353 17.875 27.5 17.875H30.1799C29.8587 21.029 28.4592 23.9756 26.2174 26.2174C23.9756 28.4591 21.029 29.8587 17.875 30.1799ZM22 16.5C22 16.8647 21.8551 17.2144 21.5973 17.4723C21.3394 17.7301 20.9897 17.875 20.625 17.875H17.875V20.625C17.875 20.9897 17.7301 21.3394 17.4723 21.5973C17.2144 21.8551 16.8647 22 16.5 22C16.1353 22 15.7856 21.8551 15.5277 21.5973C15.2699 21.3394 15.125 20.9897 15.125 20.625V17.875H12.375C12.0103 17.875 11.6606 17.7301 11.4027 17.4723C11.1449 17.2144 11 16.8647 11 16.5C11 16.1353 11.1449 15.7856 11.4027 15.5277C11.6606 15.2699 12.0103 15.125 12.375 15.125H15.125V12.375C15.125 12.0103 15.2699 11.6606 15.5277 11.4027C15.7856 11.1449 16.1353 11 16.5 11C16.8647 11 17.2144 11.1449 17.4723 11.4027C17.7301 11.6606 17.875 12.0103 17.875 12.375V15.125H20.625C20.9897 15.125 21.3394 15.2699 21.5973 15.5277C21.8551 15.7856 22 16.1353 22 16.5Z" fill="white"/>
</g>
<defs>
<clipPath id="clip0_265_383">
<rect width="33" height="33" fill="white"/>
</clipPath>
</defs>
</svg>
