<svg width="33" height="33" viewBox="0 0 33 33" fill="none" xmlns="http://www.w3.org/2000/svg">
<g id="user (2) 1" clip-path="url(#clip0_218_449)">
<path id="Vector" d="M16.5 16.5C18.1317 16.5 19.7268 16.0161 21.0835 15.1096C22.4402 14.2031 23.4976 12.9146 24.122 11.4071C24.7464 9.89965 24.9098 8.24085 24.5915 6.64051C24.2732 5.04017 23.4874 3.57016 22.3336 2.41637C21.1798 1.26259 19.7098 0.476853 18.1095 0.158525C16.5092 -0.159803 14.8504 0.00357461 13.3429 0.627998C11.8354 1.25242 10.5469 2.30984 9.64038 3.66655C8.73385 5.02325 8.25 6.61831 8.25 8.25C8.25218 10.4374 9.12208 12.5345 10.6688 14.0812C12.2155 15.6279 14.3126 16.4978 16.5 16.5ZM16.5 2.75C17.5878 2.75 18.6512 3.07257 19.5556 3.67692C20.4601 4.28127 21.1651 5.14025 21.5813 6.14525C21.9976 7.15024 22.1065 8.25611 21.8943 9.323C21.6821 10.3899 21.1583 11.3699 20.3891 12.1391C19.6199 12.9083 18.6399 13.4321 17.573 13.6443C16.5061 13.8565 15.4002 13.7476 14.3952 13.3313C13.3902 12.9151 12.5313 12.2101 11.9269 11.3056C11.3226 10.4012 11 9.3378 11 8.25C11 6.79131 11.5795 5.39237 12.6109 4.36092C13.6424 3.32947 15.0413 2.75 16.5 2.75Z" fill="white"/>
<path id="Vector_2" d="M16.5 19.25C13.2191 19.2536 10.0735 20.5586 7.75357 22.8786C5.4336 25.1985 4.12864 28.3441 4.125 31.625C4.125 31.9897 4.26987 32.3394 4.52773 32.5973C4.78559 32.8551 5.13533 33 5.5 33C5.86467 33 6.21441 32.8551 6.47227 32.5973C6.73013 32.3394 6.875 31.9897 6.875 31.625C6.875 29.0723 7.88906 26.6241 9.6941 24.8191C11.4991 23.0141 13.9473 22 16.5 22C19.0527 22 21.5009 23.0141 23.3059 24.8191C25.1109 26.6241 26.125 29.0723 26.125 31.625C26.125 31.9897 26.2699 32.3394 26.5277 32.5973C26.7856 32.8551 27.1353 33 27.5 33C27.8647 33 28.2144 32.8551 28.4723 32.5973C28.7301 32.3394 28.875 31.9897 28.875 31.625C28.8714 28.3441 27.5664 25.1985 25.2464 22.8786C22.9265 20.5586 19.7809 19.2536 16.5 19.25Z" fill="white"/>
</g>
<defs>
<clipPath id="clip0_218_449">
<rect width="33" height="33" fill="white"/>
</clipPath>
</defs>
</svg>
