<svg width="230" height="38" viewBox="0 0 230 38" fill="none" xmlns="http://www.w3.org/2000/svg">
<g id="svgexport-33 1" clip-path="url(#clip0_55_283)">
<g id="logo-group">
<g id="logo-center">
<g id="title">
<path id="path527983" d="M10.9405 29.9444C13.5318 29.9444 15.9772 29.1846 17.7655 27.8459C18.7509 27.0862 19.5174 26.1817 20.0648 25.1325C20.6123 24.0109 20.9043 22.7808 20.9043 21.4421C20.9043 18.9819 20.0648 17.0644 18.2765 15.6534C16.8166 14.4232 14.8458 13.6635 12.7654 12.8675C12.5464 12.759 12.2909 12.6866 12.072 12.5781C10.5756 12.0354 9.18867 11.4927 8.31274 10.9138C7.72879 10.4796 7.32733 10.0093 7.32733 9.17716C7.36383 7.33199 9.15219 6.68076 10.6851 6.68076C12.3274 6.68076 14.2983 7.51289 16.1231 8.99627L17.1451 9.8284L20.6488 5.30592L19.6634 4.54615C16.9626 2.37536 13.8603 1.25378 10.6851 1.25378C8.23976 1.25378 5.94043 2.04974 4.22506 3.53311C2.47319 5.05266 1.48777 7.07873 1.48777 9.32188C1.48777 10.5882 1.77976 11.7821 2.29072 12.7951C2.80168 13.7358 3.45863 14.5318 4.40755 15.2554C6.01343 16.5217 7.98428 17.3176 10.0646 18.0774C10.1741 18.1136 10.3201 18.1498 10.4661 18.2221C11.9625 18.7648 13.2399 19.2713 14.0428 19.8502C14.7728 20.3567 15.0282 20.9356 15.0282 21.8039C15.0282 22.5999 14.7362 23.2149 14.0793 23.6853C13.3859 24.1918 12.2544 24.4812 10.977 24.4812C9.88213 24.4812 8.75071 24.228 7.69229 23.7215C6.59737 23.2149 5.57546 22.419 4.80902 21.4783L3.86009 20.2844L0.0643921 24.7345L0.83083 25.5666C3.49512 28.3886 7.10835 29.9444 10.9405 29.9444Z" fill="#D9D9D9"/>
<path id="path527985" d="M38.7178 12.3972C36.9659 10.6605 34.6301 9.68369 32.1483 9.68369C30.8344 9.68369 29.557 9.97313 28.3891 10.4796V0.566376L22.9145 2.37537V18.0774C22.878 18.3307 22.878 18.6201 22.878 18.8734H22.9145V29.7273H28.3891V18.3668C28.6445 16.5217 30.2504 15.1107 32.1483 15.1107C34.2651 15.1107 35.944 16.8111 35.944 18.8734V29.7273H41.4186V18.8734C41.4186 16.4493 40.4696 14.1338 38.7178 12.3972Z" fill="#D9D9D9"/>
<path id="path527987" d="M53.429 29.9444C54.8159 29.9444 56.1663 29.6911 57.4802 29.1484C58.7211 28.6419 59.816 27.8821 60.7649 26.9415C61.7138 26.0008 62.4803 24.8792 62.9912 23.6491C63.5387 22.3828 63.8307 21.0442 63.8307 19.6331C63.8307 18.2583 63.5387 16.9197 62.9912 15.6172C62.4803 14.3871 61.7138 13.3017 60.7649 12.361C59.816 11.4203 58.6846 10.6606 57.4802 10.154C56.1663 9.61134 54.8159 9.3219 53.429 9.3219C52.0056 9.3219 50.6552 9.61134 49.3778 10.154C48.1369 10.6606 47.0055 11.4203 46.0565 12.361C45.1076 13.3017 44.3412 14.4233 43.8302 15.6172C43.2828 16.9197 43.0273 18.2583 43.0273 19.6331C43.0273 21.0442 43.2828 22.3828 43.8302 23.6491C44.3412 24.8792 45.1076 26.0008 46.0565 26.9415C47.0055 27.8821 48.1369 28.6419 49.3778 29.1484C50.6552 29.6911 52.0056 29.9444 53.429 29.9444ZM53.429 14.7489C56.1298 14.7489 58.3561 16.9558 58.3561 19.6331C58.3561 22.3466 56.1298 24.5174 53.429 24.5174C50.6917 24.5174 48.5019 22.3466 48.5019 19.6331C48.5019 16.9558 50.6917 14.7489 53.429 14.7489Z" fill="#D9D9D9"/>
<path id="path527989" d="M75.0992 29.9444C76.4861 29.9444 77.8365 29.6911 79.1504 29.1484C80.3913 28.6419 81.4862 27.8821 82.4351 26.9415C83.3841 26.0008 84.1505 24.8792 84.6615 23.6491C85.2089 22.3828 85.5009 21.0442 85.5009 19.6331C85.5009 18.2583 85.2089 16.9197 84.6615 15.6172C84.1505 14.3871 83.3841 13.3017 82.4351 12.361C81.4862 11.4203 80.3548 10.6606 79.1504 10.154C77.8365 9.61134 76.4861 9.3219 75.0992 9.3219C73.6758 9.3219 72.3254 9.61134 71.048 10.154C69.8071 10.6606 68.6757 11.4203 67.7268 12.361C66.7778 13.3017 66.0114 14.4233 65.5004 15.6172C64.953 16.9197 64.6975 18.2583 64.6975 19.6331C64.6975 21.0442 64.953 22.3828 65.5004 23.6491C66.0114 24.8792 66.7778 26.0008 67.7268 26.9415C68.6757 27.8821 69.8071 28.6419 71.048 29.1484C72.3254 29.6911 73.6758 29.9444 75.0992 29.9444ZM75.0992 14.7489C77.8 14.7489 80.0263 16.9558 80.0263 19.6331C80.0263 22.3466 77.8 24.5174 75.0992 24.5174C72.3619 24.5174 70.1721 22.3466 70.1721 19.6331C70.1721 16.9558 72.3619 14.7489 75.0992 14.7489Z" fill="#D9D9D9"/>
<path id="path527991" d="M93.3022 18.9095V14.6403H99.1052V9.57516H93.3022V3.09897L87.8276 4.90796V18.9095C87.8276 20.4291 88.1196 21.9125 88.7035 23.2873C89.2875 24.626 90.0904 25.8199 91.1488 26.8329C92.1707 27.846 93.3751 28.6781 94.7255 29.2208C96.1124 29.7997 97.5723 30.0891 99.1052 30.0891V24.6621C95.8935 24.6621 93.3022 22.0934 93.3022 18.9095Z" fill="#D9D9D9"/>
<path id="path527993" d="M100.69 10.6606V29.7273H106.201V8.85156L100.69 10.6606Z" fill="#D9D9D9"/>
<path id="path527995" d="M125.075 12.5781C123.36 10.8414 121.024 9.90076 118.579 9.90076C117.301 9.90076 116.024 10.154 114.892 10.6605V9.35806H109.418V18.2221C109.381 18.4754 109.381 18.7648 109.381 19.0181H109.418V29.7273H114.892V18.5116C115.148 16.7026 116.717 15.3277 118.579 15.3277C120.623 15.3277 122.301 16.992 122.301 19.0181V29.7273H127.776V19.0181C127.776 16.594 126.827 14.3147 125.075 12.5781Z" fill="#D9D9D9"/>
<path id="path527997" d="M146.615 12.2886C144.681 10.3711 142.126 9.3219 139.388 9.3219C136.651 9.3219 134.096 10.3711 132.162 12.2886C130.228 14.2062 129.169 16.7749 129.169 19.4522C129.169 22.1657 130.228 24.7345 132.162 26.652C134.096 28.5696 136.651 29.6188 139.388 29.6188C140.994 29.6188 142.564 29.257 143.987 28.5334C143.403 30.5233 141.578 31.9705 139.388 31.9705C138.148 31.9705 137.016 31.5363 136.104 30.7042L132.344 34.6116C134.242 36.4206 136.761 37.4336 139.388 37.4336C142.126 37.4336 144.681 36.3482 146.615 34.4307C148.549 32.5493 149.608 29.9806 149.608 27.2671V19.4522C149.608 16.7749 148.549 14.2062 146.615 12.2886ZM139.388 24.1918C136.761 24.1918 134.644 22.0572 134.644 19.4522C134.644 16.8835 136.761 14.7489 139.388 14.7489C142.016 14.7489 144.17 16.8473 144.17 19.4522C144.133 22.0572 142.016 24.1918 139.388 24.1918Z" fill="#D9D9D9"/>
<path id="path527999" d="M161.491 29.9444C164.083 29.9444 166.528 29.1846 168.316 27.8459C169.302 27.0862 170.068 26.1817 170.616 25.1325C171.163 24.0109 171.455 22.7808 171.455 21.4421C171.455 18.9819 170.616 17.0644 168.827 15.6534C167.367 14.4232 165.397 13.6635 163.316 12.8675C163.097 12.759 162.842 12.6866 162.623 12.5781C161.126 12.0354 159.74 11.4927 158.864 10.9138C158.28 10.4796 157.878 10.0093 157.878 9.17716C157.915 7.33199 159.703 6.68076 161.236 6.68076C162.878 6.68076 164.849 7.51289 166.674 8.99627L167.696 9.8284L171.2 5.30592L170.214 4.54615C167.513 2.37536 164.411 1.25378 161.236 1.25378C158.791 1.25378 156.491 2.04974 154.776 3.53311C153.024 5.05266 152.039 7.07873 152.039 9.32188C152.039 10.5882 152.331 11.7821 152.842 12.7951C153.353 13.7358 154.009 14.5318 154.958 15.2554C156.564 16.5217 158.535 17.3176 160.615 18.0774C160.725 18.1136 160.871 18.1498 161.017 18.2221C162.513 18.7648 163.791 19.2713 164.594 19.8502C165.324 20.3567 165.579 20.9356 165.579 21.8039C165.579 22.5999 165.287 23.2149 164.63 23.6853C163.937 24.1918 162.805 24.4812 161.528 24.4812C160.433 24.4812 159.302 24.228 158.243 23.7215C157.148 23.2149 156.126 22.419 155.36 21.4783L154.411 20.2844L150.615 24.7345L151.382 25.5666C154.046 28.3886 157.659 29.9444 161.491 29.9444Z" fill="#5B85E9"/>
<path id="path528001" d="M182.115 29.8358C183.575 29.8358 184.962 29.5464 186.276 29.0037C187.517 28.4248 188.648 27.6651 189.597 26.652L185.765 23.034C184.816 24.0471 183.502 24.5898 182.115 24.5898C180.327 24.5898 178.794 23.6853 177.881 22.2743H192.407V19.6693C192.407 16.9197 191.349 14.3871 189.378 12.4334C187.444 10.5158 184.852 9.46661 182.115 9.46661C179.378 9.46661 176.787 10.5158 174.852 12.4334C172.918 14.3871 171.823 16.9197 171.823 19.6693C171.823 22.3828 172.918 24.9516 174.852 26.8691C176.787 28.7866 179.378 29.8358 182.115 29.8358ZM186.349 17.0282H177.881C178.794 15.6534 180.327 14.7127 182.115 14.7127C183.904 14.7127 185.473 15.6534 186.349 17.0282Z" fill="#5B85E9"/>
<path id="path528003" d="M213.019 9.35806H207.544V10.4796C206.121 9.75604 204.515 9.35806 202.872 9.35806C201.449 9.35806 200.099 9.6475 198.821 10.1902C197.58 10.6967 196.449 11.4565 195.5 12.3972C194.551 13.3378 193.785 14.4232 193.274 15.6533C192.726 16.9558 192.471 18.2945 192.471 19.6693C192.471 21.0803 192.726 22.419 193.274 23.6853C193.785 24.9154 194.551 26.037 195.5 26.9776C196.449 27.9183 197.58 28.6781 198.821 29.1846C200.099 29.7273 201.449 29.9806 202.872 29.9806C204.478 29.9806 206.121 29.6188 207.544 28.8952V29.7273H213.019V9.35806ZM205.354 23.9023C204.588 24.3365 203.748 24.5536 202.872 24.5536C200.135 24.5536 197.945 22.3828 197.945 19.6693C197.945 16.992 200.135 14.785 202.872 14.785C203.821 14.785 204.734 15.0745 205.537 15.581C206.303 16.0875 206.924 16.7749 207.325 17.6071C207.617 18.2583 207.763 18.9457 207.763 19.7055C207.763 20.5376 207.544 21.4059 207.106 22.1295C206.705 22.8531 206.084 23.4682 205.354 23.9023Z" fill="#5B85E9"/>
<path id="path528005" d="M214.716 29.9444H223.257C226.943 29.9444 229.936 26.9776 229.936 23.3235C229.936 19.6693 226.943 16.6664 223.257 16.6664H221.724C221.213 16.6664 220.775 16.2684 220.775 15.7257C220.775 15.2192 221.213 14.785 221.724 14.785H229.352V9.1048H221.724C218.038 9.1048 215.045 12.0715 215.045 15.7257C215.045 19.3799 218.038 22.3466 221.724 22.3466H223.257C223.768 22.3466 224.206 22.7808 224.206 23.3235C224.206 23.83 223.804 24.2641 223.257 24.2641H214.716V29.9444Z" fill="#5B85E9"/>
</g>
</g>
</g>
</g>
<defs>
<clipPath id="clip0_55_283">
<rect width="230" height="38" fill="white"/>
</clipPath>
</defs>
</svg>
